####
#
# OBJ File Generated by Meshlab
#
####
# Object optical_table_noholes.obj
#
# Vertices: 8
# Faces: 12
#
####
mtllib ./optical_table_noholes.obj.mtl

vn -0.577350 -0.577350 -0.577350
v -0.749987 -0.040000 -0.499986
vn 0.577350 -0.577350 -0.577350
v 0.750013 -0.040000 -0.499986
vn -0.577350 -0.577350 0.577350
v -0.749987 -0.040000 0.500014
vn 0.577350 -0.577350 0.577350
v 0.750013 -0.040000 0.500014
vn -0.577350 0.577350 -0.577350
v -0.749987 0.040000 -0.499986
vn 0.577350 0.577350 -0.577350
v 0.750013 0.040000 -0.499986
vn -0.577350 0.577350 0.577350
v -0.749987 0.040000 0.500014
vn 0.577350 0.577350 0.577350
v 0.750013 0.040000 0.500014
# 8 vertices, 0 vertices normals


usemtl material_0
f 3//3 5//5 1//1
f 6//6 2//2 1//1
f 5//5 6//6 1//1
f 2//2 4//4 1//1
f 4//4 3//3 1//1
f 8//8 4//4 2//2
f 6//6 8//8 2//2
f 7//7 5//5 3//3
f 4//4 7//7 3//3
f 8//8 7//7 4//4
f 7//7 6//6 5//5
f 7//7 8//8 6//6
# 12 faces, 0 coords texture

# End of File
